<svg width="512" height="512" viewBox="0 0 512 512" fill="none" xmlns="http://www.w3.org/2000/svg">
<path d="M256.907 0.227008C259.908 -0.31799 166.574 -4.22997 90.0036 61.7058L67.6497 24.4409C64.3687 18.9919 57.9818 16.2669 51.8298 17.4539C45.5898 18.7139 40.8438 23.7529 39.9348 30.0369L18.7239 178.527C17.3019 188.387 25.7869 196.897 35.6868 195.505L184.163 174.294C190.462 173.386 195.501 168.64 196.761 162.414C198.021 156.188 195.208 149.846 189.759 146.579L154.368 125.34C202.734 87.4117 253.515 90.7436 256.526 90.2276C353.525 90.2276 421.228 171.482 420.998 255.271C421.23 339.578 353.333 420.226 256.438 420.226C149.395 415.359 90.7806 334.527 90.9996 255.27C90.9996 246.769 84.1347 240.226 75.9997 240.226H15.0019C6.73996 240.226 0.0309867 246.906 0.00198681 255.167C-0.540011 401.379 121.148 511.999 256.819 511.999C386.753 511.999 512.571 405.025 511.998 255.285C512.554 105.296 386.193 0.227008 256.907 0.227008V0.227008Z" fill="url(#paint0_linear)"/>
<defs>
<linearGradient id="paint0_linear" x1="256" y1="511.999" x2="256" y2="0.0010376" gradientUnits="userSpaceOnUse">
<stop stop-color="#613AFD"/>
<stop offset="1" stop-color="#8DD6FF"/>
</linearGradient>
</defs>
</svg>
