<svg width="512" height="512" viewBox="0 0 512 512" fill="none" xmlns="http://www.w3.org/2000/svg">
<g clip-path="url(#clip0)">
<path d="M510.096 249.937C506.064 244.07 409.168 106.662 255.995 106.662C124.56 106.662 7.43999 243.281 2.51199 249.105C-0.837006 253.073 -0.837006 258.897 2.51199 262.886C7.43999 268.71 124.56 405.329 255.995 405.329C387.43 405.329 504.549 268.71 509.477 262.886C512.571 259.217 512.848 253.905 510.096 249.937ZM255.995 383.996C150.63 383.996 50.448 283.516 24.998 255.996C50.406 228.455 150.481 127.996 255.995 127.996C379.28 127.996 466.299 228.327 487.547 255.42C463.013 282.065 362.256 383.996 255.995 383.996Z" fill="#F2F2F2"/>
<path d="M255.995 170.662C208.934 170.662 170.662 208.934 170.662 255.995C170.662 303.056 208.934 341.328 255.995 341.328C303.056 341.328 341.328 303.056 341.328 255.995C341.328 208.934 303.056 170.662 255.995 170.662ZM255.995 319.996C220.71 319.996 191.995 291.281 191.995 255.996C191.995 220.711 220.71 191.996 255.995 191.996C291.28 191.996 319.995 220.711 319.995 255.996C319.995 291.281 291.28 319.996 255.995 319.996Z" fill="#F2F2F2"/>
</g>
<defs>
<clipPath id="clip0">
<rect width="511.992" height="511.992" fill="white"/>
</clipPath>
</defs>
</svg>
