<svg width="379" height="55" viewBox="0 0 379 55" fill="none" xmlns="http://www.w3.org/2000/svg">
<path d="M0.100006 27C0.100006 22.88 1.02001 19.2 2.86001 15.96C4.74001 12.68 7.28001 10.14 10.48 8.34C13.72 6.5 17.34 5.58 21.34 5.58C26.02 5.58 30.12 6.78 33.64 9.18C37.16 11.58 39.62 14.9 41.02 19.14H31.36C30.4 17.14 29.04 15.64 27.28 14.64C25.56 13.64 23.56 13.14 21.28 13.14C18.84 13.14 16.66 13.72 14.74 14.88C12.86 16 11.38 17.6 10.3 19.68C9.26001 21.76 8.74001 24.2 8.74001 27C8.74001 29.76 9.26001 32.2 10.3 34.32C11.38 36.4 12.86 38.02 14.74 39.18C16.66 40.3 18.84 40.86 21.28 40.86C23.56 40.86 25.56 40.36 27.28 39.36C29.04 38.32 30.4 36.8 31.36 34.8H41.02C39.62 39.08 37.16 42.42 33.64 44.82C30.16 47.18 26.06 48.36 21.34 48.36C17.34 48.36 13.72 47.46 10.48 45.66C7.28001 43.82 4.74001 41.28 2.86001 38.04C1.02001 34.8 0.100006 31.12 0.100006 27Z" fill="#FAFAFA"/>
<path d="M67.6347 48.42C63.7147 48.42 60.1147 47.5 56.8347 45.66C53.5547 43.82 50.9547 41.28 49.0347 38.04C47.1147 34.76 46.1547 31.06 46.1547 26.94C46.1547 22.86 47.1147 19.2 49.0347 15.96C50.9547 12.68 53.5547 10.12 56.8347 8.28C60.1147 6.44 63.7147 5.52 67.6347 5.52C71.5947 5.52 75.1947 6.44 78.4347 8.28C81.7147 10.12 84.2947 12.68 86.1747 15.96C88.0947 19.2 89.0547 22.86 89.0547 26.94C89.0547 31.06 88.0947 34.76 86.1747 38.04C84.2947 41.28 81.7147 43.82 78.4347 45.66C75.1547 47.5 71.5547 48.42 67.6347 48.42ZM67.6347 40.92C70.1547 40.92 72.3747 40.36 74.2947 39.24C76.2147 38.08 77.7147 36.44 78.7947 34.32C79.8747 32.2 80.4147 29.74 80.4147 26.94C80.4147 24.14 79.8747 21.7 78.7947 19.62C77.7147 17.5 76.2147 15.88 74.2947 14.76C72.3747 13.64 70.1547 13.08 67.6347 13.08C65.1147 13.08 62.8747 13.64 60.9147 14.76C58.9947 15.88 57.4947 17.5 56.4147 19.62C55.3347 21.7 54.7947 24.14 54.7947 26.94C54.7947 29.74 55.3347 32.2 56.4147 34.32C57.4947 36.44 58.9947 38.08 60.9147 39.24C62.8747 40.36 65.1147 40.92 67.6347 40.92Z" fill="#FAFAFA"/>
<path d="M109.764 48.42C106.844 48.42 104.204 47.92 101.844 46.92C99.5241 45.92 97.6841 44.48 96.3241 42.6C94.9641 40.72 94.2641 38.5 94.2241 35.94H103.224C103.344 37.66 103.944 39.02 105.024 40.02C106.144 41.02 107.664 41.52 109.584 41.52C111.544 41.52 113.084 41.06 114.204 40.14C115.324 39.18 115.884 37.94 115.884 36.42C115.884 35.18 115.504 34.16 114.744 33.36C113.984 32.56 113.024 31.94 111.864 31.5C110.744 31.02 109.184 30.5 107.184 29.94C104.464 29.14 102.244 28.36 100.524 27.6C98.8441 26.8 97.3841 25.62 96.1441 24.06C94.9441 22.46 94.3441 20.34 94.3441 17.7C94.3441 15.22 94.9641 13.06 96.2041 11.22C97.4441 9.38 99.1841 7.98 101.424 7.02C103.664 6.02 106.224 5.52 109.104 5.52C113.424 5.52 116.924 6.58 119.604 8.7C122.324 10.78 123.824 13.7 124.104 17.46H114.864C114.784 16.02 114.164 14.84 113.004 13.92C111.884 12.96 110.384 12.48 108.504 12.48C106.864 12.48 105.544 12.9 104.544 13.74C103.584 14.58 103.104 15.8 103.104 17.4C103.104 18.52 103.464 19.46 104.184 20.22C104.944 20.94 105.864 21.54 106.944 22.02C108.064 22.46 109.624 22.98 111.624 23.58C114.344 24.38 116.564 25.18 118.284 25.98C120.004 26.78 121.484 27.98 122.724 29.58C123.964 31.18 124.584 33.28 124.584 35.88C124.584 38.12 124.004 40.2 122.844 42.12C121.684 44.04 119.984 45.58 117.744 46.74C115.504 47.86 112.844 48.42 109.764 48.42Z" fill="#FAFAFA"/>
<path d="M177.527 6.12V48H169.127V20.76L157.907 48H151.547L140.267 20.76V48H131.867V6.12H141.407L154.727 37.26L168.047 6.12H177.527Z" fill="#FAFAFA"/>
<path d="M205.271 48.42C201.351 48.42 197.751 47.5 194.471 45.66C191.191 43.82 188.591 41.28 186.671 38.04C184.751 34.76 183.791 31.06 183.791 26.94C183.791 22.86 184.751 19.2 186.671 15.96C188.591 12.68 191.191 10.12 194.471 8.28C197.751 6.44 201.351 5.52 205.271 5.52C209.231 5.52 212.831 6.44 216.071 8.28C219.351 10.12 221.931 12.68 223.811 15.96C225.731 19.2 226.691 22.86 226.691 26.94C226.691 31.06 225.731 34.76 223.811 38.04C221.931 41.28 219.351 43.82 216.071 45.66C212.791 47.5 209.191 48.42 205.271 48.42ZM205.271 40.92C207.791 40.92 210.011 40.36 211.931 39.24C213.851 38.08 215.351 36.44 216.431 34.32C217.511 32.2 218.051 29.74 218.051 26.94C218.051 24.14 217.511 21.7 216.431 19.62C215.351 17.5 213.851 15.88 211.931 14.76C210.011 13.64 207.791 13.08 205.271 13.08C202.751 13.08 200.511 13.64 198.551 14.76C196.631 15.88 195.131 17.5 194.051 19.62C192.971 21.7 192.431 24.14 192.431 26.94C192.431 29.74 192.971 32.2 194.051 34.32C195.131 36.44 196.631 38.08 198.551 39.24C200.511 40.36 202.751 40.92 205.271 40.92Z" fill="#FAFAFA"/>
<path d="M230.901 27C230.901 22.88 231.821 19.2 233.661 15.96C235.541 12.68 238.081 10.14 241.281 8.34C244.521 6.5 248.141 5.58 252.141 5.58C256.821 5.58 260.921 6.78 264.441 9.18C267.961 11.58 270.421 14.9 271.821 19.14H262.161C261.201 17.14 259.841 15.64 258.081 14.64C256.361 13.64 254.361 13.14 252.081 13.14C249.641 13.14 247.461 13.72 245.541 14.88C243.661 16 242.181 17.6 241.101 19.68C240.061 21.76 239.541 24.2 239.541 27C239.541 29.76 240.061 32.2 241.101 34.32C242.181 36.4 243.661 38.02 245.541 39.18C247.461 40.3 249.641 40.86 252.081 40.86C254.361 40.86 256.361 40.36 258.081 39.36C259.841 38.32 261.201 36.8 262.161 34.8H271.821C270.421 39.08 267.961 42.42 264.441 44.82C260.961 47.18 256.861 48.36 252.141 48.36C248.141 48.36 244.521 47.46 241.281 45.66C238.081 43.82 235.541 41.28 233.661 38.04C231.821 34.8 230.901 31.12 230.901 27Z" fill="#FAFAFA"/>
<path d="M298.435 48.42C294.515 48.42 290.915 47.5 287.635 45.66C284.355 43.82 281.755 41.28 279.835 38.04C277.915 34.76 276.955 31.06 276.955 26.94C276.955 22.86 277.915 19.2 279.835 15.96C281.755 12.68 284.355 10.12 287.635 8.28C290.915 6.44 294.515 5.52 298.435 5.52C302.395 5.52 305.995 6.44 309.235 8.28C312.515 10.12 315.095 12.68 316.975 15.96C318.895 19.2 319.855 22.86 319.855 26.94C319.855 31.06 318.895 34.76 316.975 38.04C315.095 41.28 312.515 43.82 309.235 45.66C305.955 47.5 302.355 48.42 298.435 48.42ZM298.435 40.92C300.955 40.92 303.175 40.36 305.095 39.24C307.015 38.08 308.515 36.44 309.595 34.32C310.675 32.2 311.215 29.74 311.215 26.94C311.215 24.14 310.675 21.7 309.595 19.62C308.515 17.5 307.015 15.88 305.095 14.76C303.175 13.64 300.955 13.08 298.435 13.08C295.915 13.08 293.675 13.64 291.715 14.76C289.795 15.88 288.295 17.5 287.215 19.62C286.135 21.7 285.595 24.14 285.595 26.94C285.595 29.74 286.135 32.2 287.215 34.32C288.295 36.44 289.795 38.08 291.715 39.24C293.675 40.36 295.915 40.92 298.435 40.92Z" fill="#FAFAFA"/>
<path d="M334.505 6.12V48H326.105V6.12H334.505Z" fill="#FAFAFA"/>
<path d="M378.624 48H370.224L351.204 19.26V48H342.804V6.06H351.204L370.224 34.86V6.06H378.624V48Z" fill="#FAFAFA"/>
<path d="M298.5 49.6774C310.748 49.6774 320.677 39.7482 320.677 27.5C320.677 15.2517 310.748 5.32258 298.5 5.32258C286.252 5.32258 276.323 15.2517 276.323 27.5C276.323 39.7482 286.252 49.6774 298.5 49.6774Z" fill="#813ADB"/>
<path d="M298.5 42.5806C306.829 42.5806 313.581 35.8288 313.581 27.5C313.581 19.1712 306.829 12.4194 298.5 12.4194C290.171 12.4194 283.419 19.1712 283.419 27.5C283.419 35.8288 290.171 42.5806 298.5 42.5806Z" fill="#813ADB"/>
<path d="M298.5 35.4839C302.909 35.4839 306.484 31.9094 306.484 27.5C306.484 23.0906 302.909 19.5161 298.5 19.5161C294.091 19.5161 290.516 23.0906 290.516 27.5C290.516 31.9094 294.091 35.4839 298.5 35.4839Z" fill="#813ADB"/>
<path d="M298.5 29.2742C299.48 29.2742 300.274 28.4799 300.274 27.5C300.274 26.5201 299.48 25.7258 298.5 25.7258C297.52 25.7258 296.726 26.5201 296.726 27.5C296.726 28.4799 297.52 29.2742 298.5 29.2742Z" fill="#3ADBDB"/>
<path d="M286.081 7.98387C287.061 7.98387 287.855 7.18954 287.855 6.20968C287.855 5.22982 287.061 4.43549 286.081 4.43549C285.101 4.43549 284.306 5.22982 284.306 6.20968C284.306 7.18954 285.101 7.98387 286.081 7.98387Z" fill="#3ADBDB"/>
<path d="M309.145 41.6936C310.125 41.6936 310.919 40.8992 310.919 39.9194C310.919 38.9395 310.125 38.1452 309.145 38.1452C308.165 38.1452 307.371 38.9395 307.371 39.9194C307.371 40.8992 308.165 41.6936 309.145 41.6936Z" fill="#3ADBDB"/>
<path d="M284.306 26.6129C285.286 26.6129 286.081 25.8186 286.081 24.8387C286.081 23.8588 285.286 23.0645 284.306 23.0645C283.327 23.0645 282.532 23.8588 282.532 24.8387C282.532 25.8186 283.327 26.6129 284.306 26.6129Z" fill="#3ADBDB"/>
<path d="M288.742 49.6774C289.722 49.6774 290.516 48.8831 290.516 47.9032C290.516 46.9234 289.722 46.129 288.742 46.129C287.762 46.129 286.968 46.9234 286.968 47.9032C286.968 48.8831 287.762 49.6774 288.742 49.6774Z" fill="#3ADBDB"/>
<path d="M310.919 17.7419C311.899 17.7419 312.694 16.9476 312.694 15.9677C312.694 14.9879 311.899 14.1936 310.919 14.1936C309.939 14.1936 309.145 14.9879 309.145 15.9677C309.145 16.9476 309.939 17.7419 310.919 17.7419Z" fill="#3ADBDB"/>
<path d="M310.032 28.3871C310.522 28.3871 310.919 27.9899 310.919 27.5C310.919 27.0101 310.522 26.6129 310.032 26.6129C309.542 26.6129 309.145 27.0101 309.145 27.5C309.145 27.9899 309.542 28.3871 310.032 28.3871Z" fill="#813ADB"/>
<path d="M297.613 15.9677C298.103 15.9677 298.5 15.5706 298.5 15.0806C298.5 14.5907 298.103 14.1936 297.613 14.1936C297.123 14.1936 296.726 14.5907 296.726 15.0806C296.726 15.5706 297.123 15.9677 297.613 15.9677Z" fill="#813ADB"/>
<path d="M289.629 37.2581C290.119 37.2581 290.516 36.8609 290.516 36.371C290.516 35.881 290.119 35.4839 289.629 35.4839C289.139 35.4839 288.742 35.881 288.742 36.371C288.742 36.8609 289.139 37.2581 289.629 37.2581Z" fill="#813ADB"/>
<path d="M297.613 39.0323C298.103 39.0323 298.5 38.6351 298.5 38.1452C298.5 37.6552 298.103 37.2581 297.613 37.2581C297.123 37.2581 296.726 37.6552 296.726 38.1452C296.726 38.6351 297.123 39.0323 297.613 39.0323Z" fill="#813ADB"/>
<path d="M301.161 41.6936C301.651 41.6936 302.048 41.2964 302.048 40.8065C302.048 40.3165 301.651 39.9194 301.161 39.9194C300.671 39.9194 300.274 40.3165 300.274 40.8065C300.274 41.2964 300.671 41.6936 301.161 41.6936Z" fill="#813ADB"/>
<path d="M317.129 33.7097C317.619 33.7097 318.016 33.3125 318.016 32.8226C318.016 32.3326 317.619 31.9355 317.129 31.9355C316.639 31.9355 316.242 32.3326 316.242 32.8226C316.242 33.3125 316.639 33.7097 317.129 33.7097Z" fill="#813ADB"/>
<path d="M315.355 17.7419C315.845 17.7419 316.242 17.3448 316.242 16.8548C316.242 16.3649 315.845 15.9677 315.355 15.9677C314.865 15.9677 314.468 16.3649 314.468 16.8548C314.468 17.3448 314.865 17.7419 315.355 17.7419Z" fill="#813ADB"/>
<path d="M299.387 7.98387C299.877 7.98387 300.274 7.58671 300.274 7.09678C300.274 6.60685 299.877 6.20968 299.387 6.20968C298.897 6.20968 298.5 6.60685 298.5 7.09678C298.5 7.58671 298.897 7.98387 299.387 7.98387Z" fill="#813ADB"/>
<path d="M302.935 11.5323C303.425 11.5323 303.823 11.1351 303.823 10.6452C303.823 10.1552 303.425 9.75806 302.935 9.75806C302.446 9.75806 302.048 10.1552 302.048 10.6452C302.048 11.1351 302.446 11.5323 302.935 11.5323Z" fill="#813ADB"/>
<path d="M280.758 35.4839C281.248 35.4839 281.645 35.0867 281.645 34.5968C281.645 34.1068 281.248 33.7097 280.758 33.7097C280.268 33.7097 279.871 34.1068 279.871 34.5968C279.871 35.0867 280.268 35.4839 280.758 35.4839Z" fill="#813ADB"/>
<path d="M294.065 44.3548C294.554 44.3548 294.952 43.9577 294.952 43.4677C294.952 42.9778 294.554 42.5806 294.065 42.5806C293.575 42.5806 293.177 42.9778 293.177 43.4677C293.177 43.9577 293.575 44.3548 294.065 44.3548Z" fill="#813ADB"/>
<path d="M294.065 48.7903C294.554 48.7903 294.952 48.3932 294.952 47.9032C294.952 47.4133 294.554 47.0161 294.065 47.0161C293.575 47.0161 293.177 47.4133 293.177 47.9032C293.177 48.3932 293.575 48.7903 294.065 48.7903Z" fill="#813ADB"/>
<path d="M281.645 19.5161C282.135 19.5161 282.532 19.119 282.532 18.629C282.532 18.1391 282.135 17.7419 281.645 17.7419C281.155 17.7419 280.758 18.1391 280.758 18.629C280.758 19.119 281.155 19.5161 281.645 19.5161Z" fill="#813ADB"/>
<path d="M298.5 30.1613C299.967 30.1613 301.161 28.9673 301.161 27.5C301.161 26.0327 299.967 24.8387 298.5 24.8387C297.033 24.8387 295.839 26.0327 295.839 27.5C295.839 28.9673 297.033 30.1613 298.5 30.1613ZM298.5 26.6129C298.989 26.6129 299.387 27.0103 299.387 27.5C299.387 27.9897 298.989 28.3871 298.5 28.3871C298.011 28.3871 297.613 27.9897 297.613 27.5C297.613 27.0103 298.011 26.6129 298.5 26.6129Z" fill="#EEEEEE"/>
<path d="M282.764 16.5044L282.302 14.7906C275.224 16.7031 271 22.7806 271 31.0484H272.774C272.774 23.6314 276.508 18.1944 282.764 16.5044Z" fill="#EEEEEE"/>
<path d="M285.106 14.284L285.28 16.0494C285.828 15.9952 286.395 15.9677 286.968 15.9677C295.086 15.9677 297.569 22.2253 297.671 22.4915L299.331 21.8661C299.301 21.7862 298.576 19.8905 296.689 18.0027C294.951 16.2649 291.854 14.1936 286.968 14.1936C286.337 14.1936 285.711 14.2237 285.106 14.284Z" fill="#EEEEEE"/>
<path d="M280.072 47.811C280.532 48.3716 281.033 48.9243 281.564 49.4548L282.818 48.2004C282.329 47.7107 281.866 47.2015 281.444 46.687L280.072 47.811Z" fill="#EEEEEE"/>
<path d="M278.052 39.7526L276.31 40.087C276.742 42.342 277.696 44.5314 279.144 46.593L280.597 45.5728C279.293 43.717 278.437 41.7592 278.052 39.7526Z" fill="#EEEEEE"/>
<path d="M276.085 36.3071C276.04 36.9352 276.036 37.5712 276.073 38.1984L277.844 38.0928C277.811 37.5428 277.815 36.9848 277.855 36.4357L276.085 36.3071Z" fill="#EEEEEE"/>
<path d="M319.2 43.1821C316.009 46.373 312.343 48.0993 308.596 48.1756C304.918 48.2802 301.431 46.7411 298.499 43.8093C292.759 38.0689 295.428 31.8885 295.544 31.6285L294.735 31.264L293.928 30.8967C293.892 30.9748 293.064 32.8279 293.064 35.499C293.064 37.9562 293.789 41.6102 297.244 45.0645C300.446 48.2669 304.274 49.9542 308.332 49.9542C308.432 49.9542 308.531 49.9524 308.632 49.9506C312.845 49.8646 316.932 47.9582 320.453 44.4373L319.2 43.1821Z" fill="#EEEEEE"/>
<path d="M324.158 25.6531L325.925 25.7985C325.975 25.198 326 24.577 326 23.9516H324.226C324.226 24.5282 324.203 25.1013 324.158 25.6531Z" fill="#EEEEEE"/>
<path d="M319.223 35.9443L320.356 37.3095C323.156 34.9853 325.001 31.6454 325.692 27.6517L323.944 27.3492C323.326 30.9206 321.694 33.8933 319.223 35.9443Z" fill="#EEEEEE"/>
<path d="M316.928 7.18815C316.467 6.6275 315.965 6.07484 315.436 5.54525L314.181 6.7996C314.67 7.28839 315.132 7.79758 315.556 8.31387L316.928 7.18815Z" fill="#EEEEEE"/>
<path d="M317.855 8.4079L316.403 9.42806C319.773 14.2246 320.087 19.6758 317.264 24.3818L318.785 25.2947C321.986 19.9597 321.646 13.805 317.855 8.4079Z" fill="#EEEEEE"/>
<path d="M302.629 30.4549L302.264 31.2631L301.897 32.0703C301.975 32.1058 303.828 32.9344 306.498 32.9344C308.955 32.9344 312.609 32.2096 316.064 28.7544C316.716 28.1023 317.314 27.4122 317.841 26.7043L316.418 25.6442C315.942 26.2847 315.401 26.9083 314.81 27.5C309.07 33.2404 302.889 30.5711 302.629 30.4549Z" fill="#EEEEEE"/>
<path d="M296.798 0.073629C296.192 0.0248387 295.571 0 294.952 0V1.77419C295.524 1.77419 296.096 1.79637 296.654 1.8425L296.798 0.073629Z" fill="#EEEEEE"/>
<path d="M304.261 2.27097C302.592 1.32355 300.704 0.662662 298.652 0.307823L298.349 2.0554C300.201 2.37476 301.895 2.96645 303.385 3.81185L304.261 2.27097Z" fill="#EEEEEE"/>
<path d="M309.844 13.538C308.912 13.9514 308.258 14.8837 308.258 15.9677C308.258 17.0411 308.9 17.9628 309.818 18.3833C308.739 24.5868 303.73 26.5863 303.509 26.6706L303.823 27.5L304.134 28.3312C304.397 28.2318 310.392 25.881 311.588 18.5341C312.731 18.2343 313.581 17.2026 313.581 15.9677C313.581 14.7427 312.744 13.7189 311.617 13.4111C311.057 9.34201 309.186 5.9329 306.146 3.53596L305.048 4.92871C307.689 7.01161 309.328 9.98161 309.844 13.538ZM310.919 16.8548C310.431 16.8548 310.032 16.4574 310.032 15.9677C310.032 15.4781 310.431 15.0806 310.919 15.0806C311.408 15.0806 311.806 15.4781 311.806 15.9677C311.806 16.4574 311.408 16.8548 310.919 16.8548Z" fill="#EEEEEE"/>
<path d="M277.8 11.8179C279.69 9.92839 281.74 8.56048 283.904 7.73105C284.385 8.41855 285.179 8.87097 286.081 8.87097C287.331 8.87097 288.374 8.0025 288.659 6.83863C291.978 6.83863 295.161 8.12403 297.903 10.6203L299.098 9.30831C295.971 6.45895 292.312 5.01742 288.475 5.0671C288.046 4.1729 287.138 3.54839 286.081 3.54839C284.681 3.54839 283.542 4.63863 283.439 6.01363C280.979 6.92556 278.661 8.44782 276.545 10.5644L277.8 11.8179ZM286.081 5.32258C286.569 5.32258 286.968 5.72 286.968 6.20968C286.968 6.69935 286.569 7.09677 286.081 7.09677C285.592 7.09677 285.194 6.69935 285.194 6.20968C285.194 5.72 285.592 5.32258 286.081 5.32258Z" fill="#EEEEEE"/>
<path d="M300.697 10.9592L299.343 12.1044C303.967 17.5743 301.56 23.1381 301.456 23.3715L303.072 24.1033C303.195 23.8292 306.064 17.3081 300.697 10.9592Z" fill="#EEEEEE"/>
<path d="M311.666 40.7319C314.171 40.5181 316.458 39.8182 318.466 38.6357L317.565 37.1073C315.817 38.1363 313.81 38.7351 311.613 38.9364C311.221 37.9553 310.265 37.2581 309.145 37.2581C308.138 37.2581 307.271 37.8267 306.818 38.6544C301.236 37.3033 299.407 32.7126 299.329 32.5094L298.5 32.8226L297.669 33.1348C297.759 33.3761 299.911 38.8726 306.533 40.4073C306.763 41.6412 307.845 42.5806 309.145 42.5806C310.328 42.5806 311.32 41.8009 311.666 40.7319ZM308.258 39.9194C308.258 39.4297 308.656 39.0323 309.145 39.0323C309.634 39.0323 310.032 39.4297 310.032 39.9194C310.032 40.409 309.634 40.8064 309.145 40.8064C308.656 40.8064 308.258 40.409 308.258 39.9194Z" fill="#EEEEEE"/>
<path d="M286.968 24.8387C286.968 24.7048 286.947 24.5761 286.928 24.4475C290.942 23.0592 294.337 24.5309 294.371 24.5451L295.103 22.9297C294.93 22.8507 290.898 21.0748 286.08 22.8694C285.608 22.4435 284.99 22.1774 284.306 22.1774C282.839 22.1774 281.645 23.3715 281.645 24.8387C281.645 25.0676 281.683 25.2867 281.738 25.4996C281.465 25.7391 281.196 25.9857 280.936 26.2456C278.555 28.6275 276.969 31.452 276.35 34.4158L278.087 34.7777C278.635 32.1528 280.055 29.6361 282.191 27.5C282.372 27.3181 282.567 27.1629 282.756 26.9926C283.194 27.3084 283.726 27.5 284.306 27.5C285.774 27.5 286.968 26.306 286.968 24.8387ZM284.306 25.7258C283.818 25.7258 283.419 25.3284 283.419 24.8387C283.419 24.349 283.818 23.9516 284.306 23.9516C284.795 23.9516 285.194 24.349 285.194 24.8387C285.194 25.3284 284.795 25.7258 284.306 25.7258Z" fill="#EEEEEE"/>
<path d="M292.29 43.4677H290.516V45.2419H292.29V43.4677Z" fill="#EEEEEE"/>
<path d="M306.484 10.6452H304.71V12.4194H306.484V10.6452Z" fill="#EEEEEE"/>
<path d="M274.548 0H272.774V1.77419H274.548V0Z" fill="#EEEEEE"/>
<path d="M272.774 1.77419H271V3.54839H272.774V1.77419Z" fill="#EEEEEE"/>
<path d="M272.774 12.4194H271V14.1936H272.774V12.4194Z" fill="#EEEEEE"/>
<path d="M326 8.87097H324.226V10.6452H326V8.87097Z" fill="#EEEEEE"/>
<path d="M277.21 23.9516H275.435V25.7258H277.21V23.9516Z" fill="#EEEEEE"/>
<path d="M284.306 31.0484H282.532V32.8226H284.306V31.0484Z" fill="#EEEEEE"/>
<path d="M309.145 44.3548H307.371V46.129H309.145V44.3548Z" fill="#EEEEEE"/>
<path d="M315.355 19.5161H313.581V21.2903H315.355V19.5161Z" fill="#EEEEEE"/>
<path d="M291.403 47.9032C291.403 46.436 290.209 45.2419 288.742 45.2419C288.569 45.2419 288.4 45.2615 288.236 45.2934C287.394 43.4198 286.968 41.3192 286.968 39.0323C286.968 30.9153 293.225 28.4315 293.491 28.3303L293.177 27.5L292.866 26.6688C292.786 26.699 290.89 27.4237 289.002 29.3115C287.264 31.0493 285.194 34.1461 285.194 39.0323C285.194 41.6492 285.705 44.0577 286.708 46.208C286.322 46.6693 286.081 47.2556 286.081 47.9032C286.081 49.3705 287.275 50.5645 288.742 50.5645C289.063 50.5645 289.366 50.4989 289.651 50.3942C292.7 53.4041 296.98 55 302.048 55V53.2258C297.527 53.2258 293.728 51.8446 291.026 49.2472C291.26 48.8515 291.403 48.3956 291.403 47.9032ZM288.742 48.7903C288.253 48.7903 287.855 48.3929 287.855 47.9032C287.855 47.4135 288.253 47.0161 288.742 47.0161C289.231 47.0161 289.629 47.4135 289.629 47.9032C289.629 48.3929 289.231 48.7903 288.742 48.7903Z" fill="#EEEEEE"/>
<path d="M289.629 9.75806H287.855V11.5323H289.629V9.75806Z" fill="#EEEEEE"/>
<path d="M274.548 3.54839H272.774V5.32258H274.548V3.54839Z" fill="#EEEEEE"/>
<path d="M276.323 1.77419H274.548V3.54839H276.323V1.77419Z" fill="#EEEEEE"/>
<path d="M324.226 0H322.452V1.77419H324.226V0Z" fill="#EEEEEE"/>
<path d="M322.452 1.77419H320.677V3.54839H322.452V1.77419Z" fill="#EEEEEE"/>
<path d="M324.226 3.54839H322.452V5.32258H324.226V3.54839Z" fill="#EEEEEE"/>
<path d="M326 1.77419H324.226V3.54839H326V1.77419Z" fill="#EEEEEE"/>
<path d="M318.903 49.6774H317.129V51.4516H318.903V49.6774Z" fill="#EEEEEE"/>
<path d="M317.129 51.4516H315.355V53.2258H317.129V51.4516Z" fill="#EEEEEE"/>
<path d="M318.903 53.2258H317.129V55H318.903V53.2258Z" fill="#EEEEEE"/>
<path d="M320.677 51.4516H318.903V53.2258H320.677V51.4516Z" fill="#EEEEEE"/>
<path d="M274.548 45.2419H272.774V47.0161H274.548V45.2419Z" fill="#EEEEEE"/>
<path d="M272.774 47.0161H271V48.7903H272.774V47.0161Z" fill="#EEEEEE"/>
<path d="M274.548 48.7903H272.774V50.5645H274.548V48.7903Z" fill="#EEEEEE"/>
<path d="M276.323 47.0161H274.548V48.7903H276.323V47.0161Z" fill="#EEEEEE"/>
</svg>
